<?xml version="1.0" standalone="no"?>
<!DOCTYPE svg PUBLIC "-//W3C//DTD SVG 20010904//EN"
 "http://www.w3.org/TR/2001/REC-SVG-20010904/DTD/svg10.dtd">
<svg version="1.0" xmlns="http://www.w3.org/2000/svg"
 width="260.000000pt" height="260.000000pt" viewBox="0 0 260.000000 260.000000"
 preserveAspectRatio="xMidYMid meet">
<metadata>
Created by potrace 1.14, written by Peter Selinger 2001-2017
</metadata>
<g transform="translate(0.000000,260.000000) scale(0.100000,-0.100000)"
fill="#000000" stroke="none">
<path d="M285 2586 c-112 -36 -200 -112 -249 -216 l-31 -65 0 -1005 0 -1005
31 -65 c39 -83 111 -155 194 -194 l65 -31 717 -3 717 -3 -39 84 c-21 46 -45
106 -53 134 -9 28 -22 62 -30 75 -19 30 -48 145 -58 233 -4 39 -13 99 -19 135
-10 57 -7 154 6 201 2 8 -2 22 -8 31 -12 15 -22 15 -128 -7 -91 -19 -138 -36
-225 -80 -141 -71 -213 -89 -330 -82 -142 8 -251 57 -343 156 -62 67 -73 129
-14 83 110 -87 234 -127 378 -120 178 8 202 47 69 111 -192 93 -340 256 -416
457 -20 53 -24 83 -24 165 0 89 3 106 28 153 66 126 165 191 303 200 65 4 96
0 150 -16 189 -58 351 -211 429 -407 24 -61 29 -87 33 -207 4 -131 6 -138 25
-138 26 0 105 81 134 136 26 51 63 143 99 249 89 264 250 599 329 685 17 19
40 56 49 82 10 27 40 72 72 105 30 32 54 62 54 68 0 16 83 95 100 95 35 0 140
-62 183 -109 55 -59 84 -114 103 -195 14 -61 14 -61 9 -11 -12 115 -106 239
-225 298 l-65 32 -990 2 c-780 1 -998 -1 -1030 -11z"/>
<path d="M764 1742 c-106 -50 -128 -164 -59 -302 91 -181 305 -348 450 -352
69 -2 87 14 104 93 16 73 14 125 -10 209 -67 242 -323 428 -485 352z"/>
<path d="M2586 331 c-14 -106 -104 -229 -206 -281 -24 -12 -70 -28 -104 -36
-61 -14 -61 -14 -11 -9 113 11 240 106 296 220 26 53 50 155 37 155 -3 0 -8
-22 -12 -49z"/>
</g>
</svg>
